PathFileType	4	(X/Y/Z)	D:\telocate\uwb06-Unnamed.trc
DataRate	CameraRate	NumFrames	NumMarkers	Units	OrigDataRate	OrigDataStartFrame	OrigNumFrames
100.00	100.00	     205	0	mm	100.00	10321	     16512
Frame#	Time	
		

10321	103.200	96.32054	-2209.88013	1197.14392	
10322	103.210	106.87824	-2209.65723	1196.84607	
10323	103.220	115.46755	-2209.14624	1196.34094	
10324	103.230	125.63488	-2209.10425	1196.43298	
10325	103.240	133.08386	-2208.78857	1195.56348	
10326	103.250	143.04936	-2208.32813	1195.60156	
10327	103.260	153.90759	-2207.82422	1195.25842	
10328	103.270	163.23828	-2207.32129	1194.72803	
10329	103.280	173.03311	-2207.58008	1194.38782	
10330	103.290	182.72549	-2206.90430	1193.85950	
10331	103.300	190.08287	-2206.69604	1193.66138	
10332	103.310	200.89301	-2207.12256	1192.92285	
10333	103.320	208.54280	-2206.53564	1192.66223	
10334	103.330	219.08206	-2205.99536	1192.14697	
10335	103.340	228.36877	-2206.28760	1191.71631	
10336	103.350	236.82359	-2206.02393	1191.57898	
10337	103.360	247.63669	-2206.17212	1190.90808	
10338	103.370	256.13217	-2206.02271	1190.48022	
10339	103.380	263.97211	-2205.76855	1190.25647	
10340	103.390	275.57840	-2206.15698	1189.99536	
10341	103.400	283.41989	-2205.90918	1189.70825	
10342	103.410	294.78372	-2205.40283	1188.88501	
10343	103.420	304.32007	-2205.63013	1188.51758	
10344	103.430	313.94952	-2205.39307	1188.07813	
10345	103.440	324.14093	-2205.47485	1187.38879	
10346	103.450	331.78116	-2205.12524	1187.03662	
10347	103.460	340.92169	-2205.01587	1186.17566	
10348	103.470	350.92172	-2205.37085	1185.55774	
10349	103.480	362.00803	-2204.78296	1185.26294	
10350	103.490	371.29150	-2205.13818	1184.91870	
10351	103.500	379.72620	-2204.76074	1184.55334	
10352	103.510	389.80878	-2204.72192	1184.47815	
10353	103.520	398.23508	-2204.93188	1184.12976	
10354	103.530	408.14804	-2204.64551	1183.83582	
10355	103.540	417.37885	-2204.71313	1183.89893	
10356	103.550	425.37753	-2204.15991	1183.70703	
10357	103.560	435.90973	-2203.67578	1183.83411	
10358	103.570	444.95169	-2203.16626	1183.79797	
10359	103.580	452.94226	-2203.36304	1183.81140	
10360	103.590	463.22836	-2203.41821	1184.42273	
10361	103.600	470.98648	-2203.28418	1184.44849	
10362	103.610	480.60339	-2202.97778	1184.75684	
10363	103.620	487.71976	-2202.50000	1185.17712	
10364	103.630	497.93866	-2202.53174	1185.30566	
10365	103.640	508.87509	-2202.14355	1185.50098	
10366	103.650	518.68750	-2201.97266	1185.39099	
10367	103.660	529.05292	-2201.72510	1185.57178	
10368	103.670	538.17090	-2201.75244	1185.55505	
10369	103.680	545.92340	-2201.91650	1185.93372	
10370	103.690	556.82532	-2201.81104	1185.77222	
10371	103.700	564.76105	-2201.96997	1185.94849	
10372	103.710	574.94885	-2201.92432	1185.99902	
10373	103.720	583.83661	-2202.07764	1186.21375	
10374	103.730	591.92639	-2201.68799	1186.46594	
10375	103.740	602.57050	-2201.39526	1186.49170	
10376	103.750	610.58081	-2200.98560	1186.69299	
10377	103.760	620.47101	-2199.94141	1186.61218	
10378	103.770	629.78320	-2199.81128	1186.73376	
10379	103.780	637.70648	-2198.90820	1186.62659	
10380	103.790	648.92676	-2197.67676	1186.61658	
10381	103.800	658.66193	-2197.16211	1186.31702	
10382	103.810	667.37396	-2196.29053	1186.27759	
10383	103.820	678.23010	-2195.95898	1186.55103	
10384	103.830	686.16736	-2195.13477	1186.14636	
10385	103.840	698.42468	-2194.31152	1185.65796	
10386	103.850	708.30548	-2193.37769	1185.83911	
10387	103.860	718.95996	-2192.46680	1185.26367	
10388	103.870	729.16138	-2191.85156	1184.79456	
10389	103.880	739.85406	-2190.46094	1184.39600	
10390	103.890	750.55334	-2189.50562	1183.82092	
10391	103.900	762.19379	-2188.16699	1183.04712	
10392	103.910	772.99762	-2187.24414	1182.41882	
10393	103.920	782.20355	-2186.26196	1181.87158	
10394	103.930	794.57214	-2184.64917	1181.12427	
10395	103.940	805.05652	-2183.75195	1179.64490	
10396	103.950	818.89972	-2181.89624	1179.49597	
10397	103.960	830.37317	-2181.06592	1178.11633	
10398	103.970	841.76556	-2179.49829	1177.46289	
10399	103.980	851.94568	-2178.32349	1176.77417	
10400	103.990	864.96753	-2176.82080	1176.48315	
10401	104.000	875.44977	-2175.69238	1175.63452	
10402	104.010	889.10120	-2174.30444	1175.10828	
10403	104.020	900.22717	-2172.89209	1174.53979	
10404	104.030	911.51801	-2171.91870	1174.65234	
10405	104.040	921.37341	-2170.75732	1174.47180	
10406	104.050	935.13757	-2168.82617	1173.82117	
10407	104.060	944.91406	-2167.93237	1173.57800	
10408	104.070	958.94366	-2166.33423	1173.13989	
10409	104.080	967.72217	-2164.80640	1172.89587	
10410	104.090	981.69434	-2162.80322	1172.24536	
10411	104.100	993.15039	-2161.61035	1172.00940	
10412	104.110	1004.95807	-2159.37695	1171.97974	
10413	104.120	1016.77484	-2157.47534	1171.46289	
10414	104.130	1027.18506	-2155.40967	1171.12756	
10415	104.140	1035.57947	-2153.94092	1170.87402	
10416	104.150	1046.14539	-2151.63452	1170.69189	
10417	104.160	1058.13354	-2149.82764	1171.50562	
10418	104.170	1071.19177	-2148.09839	1171.17700	
10419	104.180	1080.61560	-2146.36572	1171.32520	
10420	104.190	1093.89026	-2144.72168	1172.14453	
10421	104.200	1103.10364	-2143.54907	1171.63428	
10422	104.210	1116.04260	-2141.94434	1171.85657	
10423	104.220	1126.00732	-2140.86304	1171.61926	
10424	104.230	1139.32825	-2139.29565	1171.25562	
10425	104.240	1150.91382	-2138.08472	1170.95520	
10426	104.250	1162.86377	-2137.10864	1171.62903	
10427	104.260	1173.05896	-2136.09595	1170.67505	
10428	104.270	1185.85779	-2135.10303	1170.09509	
10429	104.280	1195.57617	-2134.38257	1170.47827	
10430	104.290	1208.50171	-2133.29346	1169.57019	
10431	104.300	1220.08691	-2132.64258	1170.00110	
10432	104.310	1232.33704	-2132.52148	1169.67126	
10433	104.320	1242.54700	-2131.90991	1169.78247	
10434	104.330	1255.37646	-2131.31714	1168.91272	
10435	104.340	1264.92407	-2130.66772	1169.24951	
10436	104.350	1278.24817	-2129.89111	1169.01099	
10437	104.360	1289.58447	-2129.63989	1168.99756	
10438	104.370	1301.68066	-2129.24048	1169.33752	
10439	104.380	1312.32483	-2128.82690	1168.98352	
10440	104.390	1324.78162	-2128.56152	1168.65466	
10441	104.400	1335.17896	-2128.67578	1168.34045	
10442	104.410	1348.59375	-2128.16846	1168.40906	
10443	104.420	1359.98157	-2128.07813	1167.51880	
10444	104.430	1372.86853	-2127.24072	1167.20386	
10445	104.440	1383.41284	-2127.68604	1166.09705	
10446	104.450	1396.23523	-2126.55469	1165.08789	
10447	104.460	1406.77893	-2126.85889	1164.55371	
10448	104.470	1420.55811	-2126.42480	1163.97253	
10449	104.480	1430.11804	-2126.35571	1162.39319	
10450	104.490	1446.98901	-2125.76294	1162.45764	
10451	104.500	1457.23755	-2125.97070	1161.37134	
10452	104.510	1470.75745	-2124.80737	1160.07532	
10453	104.520	1483.12891	-2124.49146	1159.14014	
10454	104.530	1495.38367	-2124.28662	1158.42334	
10455	104.540	1505.72778	-2124.71533	1157.29480	
10456	104.550	1518.79590	-2123.65527	1156.38110	
10457	104.560	1528.81726	-2124.07520	1155.92004	
10458	104.570	1541.74878	-2123.79199	1155.48694	
10459	104.580	1552.49097	-2123.47241	1155.25269	
10460	104.590	1564.66992	-2123.30396	1154.97180	
10461	104.600	1573.24231	-2123.33472	1154.27515	
10462	104.610	1584.66199	-2123.38623	1154.42957	
10463	104.620	1594.77942	-2122.99780	1154.77527	
10464	104.630	1605.45154	-2122.63550	1154.77539	
10465	104.640	1614.91821	-2123.31055	1154.92517	
10466	104.650	1623.09509	-2123.57129	1156.07153	
10467	104.660	1634.97375	-2122.56958	1156.14197	
10468	104.670	1643.89648	-2123.14575	1157.68542	
10469	104.680	1652.66296	-2123.53906	1157.99866	
10470	104.690	1663.51636	-2123.37842	1159.81824	
10471	104.700	1670.69958	-2123.89282	1160.68494	
10472	104.710	1681.60229	-2123.25732	1162.18359	
10473	104.720	1689.76660	-2123.81470	1163.73083	
10474	104.730	1699.16577	-2124.42944	1164.53040	
10475	104.740	1711.54419	-2123.60815	1165.72290	
10476	104.750	1720.74487	-2124.21460	1166.53418	
10477	104.760	1733.00867	-2123.70679	1167.53076	
10478	104.770	1740.63464	-2124.29785	1167.68262	
10479	104.780	1752.01587	-2124.16504	1168.56140	
10480	104.790	1759.99280	-2124.51782	1169.58533	
10481	104.800	1769.71924	-2124.52246	1169.54736	
10482	104.810	1782.29321	-2123.84595	1170.58008	
10483	104.820	1789.21948	-2123.89331	1170.85071	
10484	104.830	1801.55237	-2123.97461	1171.15015	
10485	104.840	1809.11743	-2123.51978	1171.74207	
10486	104.850	1820.14111	-2122.98853	1172.52979	
10487	104.860	1830.09387	-2122.70288	1172.70593	
10488	104.870	1837.32593	-2122.68091	1173.15588	
10489	104.880	1849.48145	-2121.63062	1172.98279	
10490	104.890	1857.33752	-2122.20215	1172.68835	
10491	104.900	1869.95776	-2121.10303	1173.72693	
10492	104.910	1879.07947	-2121.16772	1173.22034	
10493	104.920	1889.90820	-2120.19092	1172.94202	
10494	104.930	1900.01550	-2119.65503	1172.36523	
10495	104.940	1908.48120	-2119.75073	1172.17322	
10496	104.950	1920.73376	-2118.13623	1171.37366	
10497	104.960	1929.80969	-2118.01709	1171.22217	
10498	104.970	1942.32422	-2116.52539	1171.26416	
10499	104.980	1951.13635	-2116.02710	1170.07129	
10500	104.990	1962.40015	-2114.70532	1169.71606	
10501	105.000	1971.90198	-2114.26538	1169.02856	
10502	105.010	1983.90247	-2112.47266	1168.19824	
10503	105.020	1994.91528	-2111.40088	1167.06384	
10504	105.030	2005.16162	-2110.10596	1166.22156	
10505	105.040	2016.70557	-2108.13281	1165.88379	
10506	105.050	2025.20142	-2107.19971	1164.28845	
10507	105.060	2037.99963	-2105.24487	1163.68835	
10508	105.070	2046.93237	-2104.04980	1162.65137	
10509	105.080	2059.51563	-2101.89771	1161.46204	
10510	105.090	2069.61865	-2100.40381	1160.99390	
10511	105.100	2082.50952	-2097.71265	1160.21643	
10512	105.110	2091.07495	-2096.78491	1158.68152	
10513	105.120	2102.47314	-2094.63452	1158.60486	
10514	105.130	2111.49658	-2092.82788	1158.01367	
10515	105.140	2121.56030	-2091.02856	1157.15247	
10516	105.150	2134.60352	-2088.53296	1156.74524	
10517	105.160	2145.62598	-2086.01001	1156.57495	
10518	105.170	2155.95752	-2083.85010	1156.44250	
10519	105.180	2164.15723	-2082.03052	1155.37830	
10520	105.190	2177.28027	-2078.76563	1155.26660	
10521	105.200	2186.23145	-2076.58716	1154.69971	
10522	105.210	2196.85840	-2073.92334	1154.25842	
10523	105.220	2208.94922	-2071.33789	1154.47900	
10524	105.230	2220.23901	-2068.69849	1154.85608	
10525	105.240	2228.02832	-2066.53809	1154.37183	
